<svg width="343" height="453" viewBox="0 0 343 453" fill="none" xmlns="http://www.w3.org/2000/svg">
<path opacity="0.0416667" d="M516.069 549.65C521.35 535.806 530.067 519.339 528.937 503.873C527.935 490.159 505.409 490.064 496.718 488.863C466.977 484.752 436.198 484.822 406.925 477.615C397.666 475.336 392.696 471.938 388.624 463.739C382.9 452.214 381.334 436.389 383.035 423.779C384.206 415.101 389.38 410.397 393.146 402.948C397.653 394.033 392.134 391.402 384.334 388.228C368.126 381.633 351.801 375.147 335.551 368.616C320.673 362.637 303.38 356.456 287.251 360.574C272.641 364.305 259.542 372.208 248.603 382.421C246.082 384.776 234.224 395.959 245.538 392.032C258.502 387.533 270.034 377.727 278.354 367.062C293.068 348.202 295.039 327.858 288.99 305.06C282.782 281.663 270.552 260.7 246.931 251.737C225.402 243.568 202.51 248.626 181.31 255.082C176.81 256.453 147.213 270.195 142.758 263.525C140.974 260.852 144.437 254.724 145.326 252.643C148.626 244.916 152.335 237.533 154.595 229.387C155.707 225.382 163.68 180.327 153.241 183.95" stroke="#2C0065" stroke-linecap="round"/>
<path opacity="0.0833333" d="M527.631 528.543C531.685 514.291 538.934 497.128 536.46 481.819C534.267 468.245 511.818 470.113 503.056 469.674C473.07 468.17 442.414 470.924 412.625 466.295C403.202 464.831 397.954 461.88 393.183 454.067C386.477 443.085 383.538 427.456 384.134 414.746C384.544 405.999 389.288 400.861 392.391 393.113C396.103 383.839 390.375 381.699 382.329 379.217C365.608 374.06 348.78 369.021 332.022 363.931C316.68 359.272 298.913 354.621 283.205 360.13C268.976 365.12 256.615 374.134 246.609 385.262C244.302 387.827 233.464 400.002 244.393 395.104C256.916 389.491 267.549 378.717 274.907 367.369C287.921 347.297 288.112 326.859 280.099 304.676C271.876 281.908 257.865 262.091 233.553 255.221C211.393 248.959 189.029 255.993 168.473 264.273C164.109 266.03 135.823 282.299 130.804 276.043C128.793 273.536 131.709 267.129 132.413 264.979C135.028 256.994 138.079 249.316 139.62 241.004C140.378 236.917 144.395 191.338 134.311 195.857" stroke="#2C0065" stroke-linecap="round"/>
<path opacity="0.125" d="M537.624 506.286C540.421 491.735 546.146 474.006 542.347 458.97C538.979 445.639 516.779 449.457 508.012 449.783C478.009 450.899 447.709 456.313 417.63 454.299C408.116 453.662 402.63 451.179 397.197 443.812C389.559 433.456 385.269 418.142 384.754 405.429C384.4 396.68 388.679 391.148 391.094 383.158C393.985 373.596 388.092 371.964 379.86 370.193C362.753 366.513 345.55 362.959 328.412 359.35C312.722 356.045 294.618 352.96 279.45 359.817C265.71 366.029 254.182 376.085 245.183 388.043C243.109 390.8 233.373 403.873 243.833 398.041C255.819 391.358 265.473 379.698 271.814 367.752C283.03 346.622 281.438 326.245 271.523 304.844C261.346 282.88 245.661 264.36 220.843 259.635C198.222 255.328 176.556 264.285 156.8 274.324C152.606 276.456 125.845 295.128 120.3 289.333C118.078 287.011 120.424 280.374 120.938 278.171C122.847 269.988 125.217 262.073 126.029 253.659C126.428 249.521 126.456 203.766 116.805 209.147" stroke="#2C0065" stroke-linecap="round"/>
<path opacity="0.166667" d="M545.952 483.021C547.47 468.282 551.628 450.12 546.534 435.473C542.017 422.486 520.234 428.225 511.528 429.313C481.737 433.04 452.024 441.074 421.884 441.689C412.351 441.884 406.67 439.889 400.615 433.023C392.103 423.372 386.495 408.491 384.874 395.871C383.759 387.185 387.539 381.302 389.249 373.132C391.295 363.355 385.283 362.242 376.927 361.195C359.565 359.02 342.117 356.979 324.731 354.877C308.812 352.952 290.508 351.457 275.995 359.61C262.849 366.996 252.241 378.019 244.319 390.716C242.493 393.643 233.933 407.514 243.846 400.792C255.204 393.091 263.804 380.634 269.08 368.18C278.412 346.154 275.05 325.993 263.307 305.538C251.255 284.544 234.016 267.461 208.88 264.917C185.97 262.599 165.167 273.409 146.361 285.132C142.368 287.621 117.337 308.555 111.308 303.265C108.892 301.146 110.651 294.33 110.971 292.09C112.16 283.772 113.831 275.681 113.906 267.227C113.943 263.07 109.983 217.487 100.838 223.689" stroke="#2C0065" stroke-linecap="round"/>
<path opacity="0.208333" d="M552.536 458.896C552.764 444.08 555.323 425.625 548.971 411.478C543.339 398.934 522.139 406.549 513.562 408.393C484.208 414.701 455.31 425.295 425.337 428.535C415.857 429.559 410.024 428.067 403.394 421.755C394.073 412.882 387.189 398.547 384.475 386.116C382.607 377.561 385.86 371.37 386.852 363.082C388.038 353.164 381.951 352.579 373.536 352.265C356.05 351.611 338.491 351.099 320.988 350.52C304.962 349.99 286.597 350.096 272.85 359.483C260.397 367.986 250.791 379.892 244.005 393.231C242.441 396.306 235.123 410.87 244.412 403.31C255.056 394.648 262.538 381.489 266.708 368.623C274.084 345.867 268.978 326.076 255.497 306.722C241.661 286.858 222.999 271.344 197.737 271C174.712 270.687 154.931 283.269 137.218 296.587C133.458 299.414 110.346 322.45 103.878 317.705C101.287 315.805 102.445 308.861 102.569 306.602C103.028 298.213 103.988 290.006 103.326 281.579C103 277.434 95.0831 232.369 86.5126 239.345" stroke="#2C0065" stroke-linecap="round"/>
<path opacity="0.25" d="M557.305 434.066C556.241 419.287 557.182 400.679 549.621 387.139C542.917 375.134 522.462 384.568 514.078 387.152C485.386 395.995 457.52 409.067 427.944 414.907C418.59 416.754 412.649 415.775 405.493 410.065C395.435 402.039 387.328 388.357 383.541 376.21C380.934 367.851 383.635 361.4 383.901 353.058C384.218 343.074 378.103 343.022 369.693 343.442C352.217 344.315 334.68 345.335 317.192 346.284C301.182 347.152 282.896 348.859 270.019 359.408C258.355 368.964 249.823 381.662 244.226 395.541C242.935 398.741 236.915 413.888 245.509 405.547C255.357 395.99 261.664 382.229 264.697 369.048C270.062 345.736 263.251 326.465 248.134 308.36C232.62 289.778 212.676 275.949 187.48 277.808C164.516 279.503 145.906 293.761 129.421 308.572C125.922 311.716 104.906 336.679 98.0494 332.516C95.3026 330.848 95.8509 323.831 95.7772 321.569C95.5034 313.171 95.7442 304.913 94.3501 296.575C93.6645 292.475 81.85 248.271 73.92 255.967" stroke="#2C0065" stroke-linecap="round"/>
<path opacity="0.291667" d="M560.206 408.692C557.858 394.062 557.173 375.444 548.462 362.614C540.737 351.239 521.182 362.42 513.055 365.725C485.243 377.035 458.622 392.486 429.668 400.88C420.51 403.536 414.506 403.079 406.88 398.014C396.161 390.895 386.892 377.972 382.061 366.202C378.736 358.101 380.864 351.44 380.401 343.106C379.847 333.132 373.751 333.613 365.41 334.765C348.076 337.157 330.695 339.702 313.356 342.171C297.482 344.432 279.415 347.726 267.507 359.357C256.72 369.893 249.327 383.286 244.96 397.601C243.954 400.901 239.276 416.515 247.111 407.457C256.089 397.078 261.173 382.82 263.045 369.424C266.358 345.734 257.893 327.13 241.256 310.411C224.181 293.252 203.107 281.213 178.17 285.261C155.44 288.951 138.144 304.777 123.013 320.969C119.801 324.406 101.041 351.105 93.8475 347.556C90.9658 346.134 90.9004 339.095 90.6298 336.848C89.6252 328.507 89.1453 320.259 87.0298 312.074C85.9895 308.049 70.3673 265.043 63.1382 273.401" stroke="#2C0065" stroke-linecap="round"/>
<path opacity="0.333333" d="M561.199 382.94C557.584 368.571 555.28 350.082 545.483 338.061C536.796 327.402 518.29 340.245 510.482 344.246C483.761 357.936 458.589 375.649 430.477 386.535C421.584 389.979 415.564 390.047 407.526 385.666C396.227 379.508 385.867 367.443 380.028 356.138C376.009 348.358 377.549 341.536 376.362 333.274C374.941 323.387 368.91 324.397 360.7 326.271C343.641 330.166 326.548 334.216 309.491 338.187C293.874 341.823 276.162 346.678 265.313 359.303C255.486 370.739 249.288 384.726 246.186 399.366C245.471 402.741 242.172 418.704 249.188 408.997C257.226 397.876 261.048 383.229 261.746 369.721C262.981 345.832 252.927 328.036 234.896 312.831C216.391 297.225 194.348 287.069 169.858 293.276C147.537 298.932 131.686 316.206 118.024 333.654C115.123 337.358 98.7614 365.591 91.2863 362.682C88.2917 361.517 87.613 354.51 87.1477 352.296C85.4199 344.074 84.2229 335.899 81.4021 327.929C80.0149 324.01 60.704 282.53 54.2309 291.486" stroke="#2C0065" stroke-linecap="round"/>
<path opacity="0.375" d="M560.257 356.977C555.403 342.977 551.497 324.76 540.689 313.638C531.107 303.777 513.79 318.184 506.36 322.85C480.935 338.817 457.402 358.656 430.345 371.952C421.787 376.157 415.796 376.749 407.406 373.086C395.613 367.936 384.241 356.819 377.439 346.067C372.758 338.666 373.698 331.737 371.794 323.609C369.517 313.884 363.597 315.416 355.582 317.998C338.927 323.365 322.252 328.889 305.606 334.332C290.366 339.315 273.145 345.696 263.437 359.218C254.643 371.467 249.688 385.941 247.874 400.796C247.456 404.22 245.561 420.41 251.704 410.129C258.743 398.349 261.273 383.424 260.792 369.907C259.94 346.001 248.373 329.15 229.086 315.574C209.29 301.64 186.447 293.444 162.591 301.761C140.847 309.342 126.562 327.931 114.473 346.504C111.906 350.447 98.067 379.998 90.3668 377.752C87.282 376.852 85.9953 369.931 85.3388 367.766C82.9009 359.725 80.996 351.686 77.4913 343.992C75.7679 340.209 52.9152 300.57 47.2472 310.056" stroke="#2C0065" stroke-linecap="round"/>
<path opacity="0.416667" d="M557.37 330.972C551.315 317.448 545.835 299.641 534.099 289.504C523.694 280.515 507.698 296.377 500.704 301.672C476.767 319.795 455.052 341.609 429.257 357.212C421.098 362.147 415.181 363.26 406.504 360.341C394.308 356.239 382.01 346.156 374.297 336.037C368.988 329.073 369.32 322.087 366.716 314.157C363.6 304.667 357.836 306.709 350.077 309.98C333.953 316.778 317.823 323.735 301.714 330.607C286.966 336.9 270.367 344.757 261.875 359.074C254.182 372.043 250.507 386.893 249.995 401.85C249.877 405.298 249.4 421.591 254.623 410.814C260.609 398.465 261.829 383.377 260.171 369.953C257.239 346.212 244.247 330.433 223.85 318.59C202.916 306.435 179.445 300.261 156.404 310.625C135.404 320.072 122.794 339.836 112.369 359.391C110.156 363.543 98.9449 394.188 91.0783 392.621C87.9268 391.994 86.0418 385.212 85.199 383.112C82.0696 375.314 79.4713 367.471 75.3095 360.113C73.2629 356.494 47.0424 318.998 42.2227 328.941" stroke="#2C0065" stroke-linecap="round"/>
<path opacity="0.458333" d="M552.541 305.095C545.33 292.151 538.319 274.889 525.745 265.813C514.595 257.766 500.043 274.96 493.537 280.845C471.27 300.986 451.54 324.61 427.203 342.401C419.505 348.029 413.707 349.653 404.809 347.502C392.301 344.478 379.172 335.505 370.606 326.096C364.711 319.622 364.433 312.634 361.147 304.961C357.215 295.778 351.652 298.315 344.207 302.25C328.737 310.427 313.274 318.763 297.826 327.013C283.683 334.567 267.831 343.842 260.619 358.844C254.086 372.434 251.72 387.548 252.513 402.493C252.696 405.938 253.641 422.21 257.905 411.019C262.791 398.195 262.692 383.058 259.87 369.83C254.88 346.435 240.563 331.849 219.211 321.828C197.297 311.544 173.377 307.439 151.328 319.772C131.231 331.013 120.391 351.801 111.71 372.191C109.867 376.519 101.37 408.025 93.3968 407.15C90.2025 406.799 87.7336 400.207 86.711 398.189C82.914 390.693 79.642 383.107 74.8547 376.139C72.5005 372.713 43.1117 337.644 39.177 347.97" stroke="#2C0065" stroke-linecap="round"/>
<path opacity="0.5" d="M545.789 279.515C537.478 267.248 528.989 250.663 515.671 242.718C503.863 235.673 490.865 254.07 484.896 260.5C464.47 282.505 446.873 307.758 424.18 327.603C417.002 333.88 411.368 336.003 402.316 334.636C389.592 332.714 375.73 324.919 366.377 316.293C359.94 310.357 359.054 303.42 355.112 296.062C350.395 287.257 345.074 290.27 338 294.838C323.302 304.333 308.624 313.984 293.954 323.55C280.523 332.308 265.54 342.928 259.663 358.502C254.339 372.61 253.299 387.873 255.392 402.692C255.874 406.108 258.234 422.236 261.506 410.715C265.257 397.515 263.838 382.444 259.874 369.512C252.864 346.641 237.33 333.357 215.186 325.236C192.459 316.901 168.273 314.896 147.382 329.104C128.342 342.054 119.355 363.707 112.484 384.776C111.025 389.249 105.306 421.375 97.2869 421.198C94.0743 421.128 91.0403 414.776 89.8456 412.854C85.4098 405.718 81.489 398.446 76.1126 391.922C73.4688 388.714 41.1354 356.34 38.1157 366.97" stroke="#2C0065" stroke-linecap="round"/>
<path opacity="0.541667" d="M537.147 254.399C527.798 242.903 517.896 227.121 503.937 220.366C491.56 214.377 480.214 233.838 474.829 240.763C456.398 264.464 441.069 291.155 420.192 312.902C413.588 319.781 408.16 322.387 399.024 321.814C386.181 321.008 371.693 314.451 361.623 306.673C354.693 301.321 353.206 294.487 348.638 287.501C343.171 279.141 338.133 282.606 331.484 287.774C317.669 298.513 303.889 309.407 290.108 320.215C277.491 330.11 263.491 341.996 258.994 358.023C254.92 372.541 255.214 387.836 258.59 402.416C259.369 405.777 263.125 421.638 265.381 409.876C267.966 396.399 265.24 381.509 260.164 368.972C251.187 346.799 234.555 334.92 211.787 328.76C188.42 322.437 164.151 322.548 144.578 338.523C126.739 353.083 119.673 375.437 114.665 397.024C113.602 401.607 110.704 434.109 102.7 434.632C99.4936 434.842 95.9175 428.778 94.56 426.968C89.5191 420.246 84.9794 413.343 79.0549 407.313C76.1415 404.347 41.1096 374.914 39.0277 385.767" stroke="#2C0065" stroke-linecap="round"/>
<path opacity="0.583333" d="M526.663 229.908C516.348 219.271 505.108 204.412 490.613 198.9C477.761 194.012 468.155 214.388 463.393 221.756C447.098 246.973 434.154 274.899 415.251 298.383C409.272 305.811 404.093 308.88 394.941 309.105C382.077 309.422 367.072 304.153 356.363 297.282C348.993 292.554 346.916 285.876 341.756 279.315C335.582 271.463 330.864 275.353 324.692 281.081C311.865 292.983 299.087 305.037 286.301 317.005C274.594 327.962 261.683 341.023 258.6 357.381C255.807 372.199 257.433 387.41 262.067 401.64C263.135 404.921 268.259 420.394 269.482 408.48C270.883 394.829 266.869 380.233 260.72 368.186C249.845 346.88 232.24 336.496 209.022 332.343C185.193 328.081 161.026 330.307 142.92 347.927C126.417 363.986 121.327 386.871 118.219 408.813C117.559 413.471 117.506 446.102 109.578 447.321C106.401 447.809 102.311 442.08 100.8 440.395C95.1928 434.138 90.0688 427.657 83.6412 422.166C80.4805 419.466 43.0166 393.198 41.8885 404.191" stroke="#2C0065" stroke-linecap="round"/>
<path opacity="0.625" d="M514.398 206.202C503.195 196.505 490.703 182.682 475.783 178.454C462.554 174.705 454.76 195.84 450.659 203.596C436.624 230.137 426.163 259.084 409.379 284.126C404.07 292.047 399.177 295.556 390.08 296.578C377.293 298.015 361.886 294.074 350.618 288.162C342.864 284.094 340.213 277.623 334.501 271.536C327.666 264.252 323.306 268.539 317.656 274.783C305.915 287.758 294.236 300.88 282.542 313.916C271.835 325.852 260.111 339.988 258.465 356.553C256.975 371.558 259.92 386.57 265.777 400.342C267.127 403.517 273.58 418.485 273.76 406.509C273.965 392.788 268.695 378.598 261.519 367.133C248.828 346.855 230.385 338.045 206.894 335.932C182.784 333.763 158.903 338.086 142.401 357.217C127.361 374.654 124.285 397.895 123.101 420.024C122.85 424.722 125.641 457.234 117.849 459.139C114.727 459.902 110.153 454.552 108.502 453.005C102.37 447.26 96.7006 441.25 89.8189 436.34C86.4348 433.926 46.8241 411.023 46.6585 422.072" stroke="#2C0065" stroke-linecap="round"/>
<path opacity="0.666667" d="M500.428 183.433C488.423 174.749 474.773 162.067 459.541 159.156C446.036 156.574 440.114 178.308 436.704 186.391C425.035 214.055 417.138 243.804 402.6 270.214C398.002 278.567 393.433 282.489 384.46 284.3C371.846 286.846 356.154 284.262 344.415 279.356C336.336 275.979 333.131 269.763 326.91 264.198C319.466 257.537 315.496 262.187 310.411 268.9C299.846 282.849 289.356 296.939 278.842 310.945C269.216 323.768 258.769 338.873 258.573 355.517C258.396 370.595 262.638 385.293 269.673 398.503C271.294 401.548 279.028 415.896 278.163 403.951C277.172 390.264 270.685 376.587 262.537 365.791C248.127 346.697 228.987 339.527 205.401 339.469C181.193 339.41 157.78 345.799 143.009 366.295C129.546 384.976 128.506 408.397 129.256 430.545C129.415 435.247 135.029 467.392 127.433 469.968C124.39 471.001 119.366 466.07 117.586 464.672C110.977 459.484 104.806 453.991 97.5223 449.7C93.9406 447.589 52.4846 428.226 53.2825 439.248" stroke="#2C0065" stroke-linecap="round"/>
<path opacity="0.708333" d="M484.84 161.746C472.123 154.141 457.421 142.697 441.993 141.124C428.314 139.73 424.309 161.897 421.616 170.247C412.403 198.822 407.128 229.146 394.947 256.722C391.095 265.445 386.886 269.75 378.104 272.336C365.76 275.972 349.903 274.766 337.781 270.901C329.438 268.241 325.703 262.328 319.021 257.326C311.025 251.34 307.475 256.319 302.995 263.449C293.686 278.265 284.463 293.216 275.21 308.085C266.738 321.698 257.648 337.656 258.903 354.254C260.041 369.29 265.548 383.563 273.707 396.109C275.588 399.001 284.543 412.621 282.64 400.796C280.46 387.248 272.805 374.188 263.748 364.143C247.729 346.378 228.036 340.904 204.535 342.902C180.414 344.952 157.647 353.357 144.718 375.063C132.934 394.846 133.94 418.269 136.618 440.267C137.186 444.938 145.58 476.471 138.237 479.699C135.295 480.993 129.861 476.519 127.967 475.282C120.931 470.689 114.304 465.755 106.674 462.115C102.922 460.325 59.9361 444.648 61.6916 455.558" stroke="#2C0065" stroke-linecap="round"/>
<path opacity="0.75" d="M467.736 141.277C454.404 134.809 438.76 124.691 423.254 124.468C409.506 124.271 407.448 146.703 405.493 155.256C398.806 184.525 396.194 215.194 386.463 243.727C383.385 252.752 379.567 257.408 371.044 260.749C359.064 265.447 343.162 265.627 330.749 262.834C322.206 260.911 317.971 255.346 310.878 250.946C302.39 245.679 299.288 250.948 295.447 258.442C287.465 274.013 279.58 289.711 271.658 305.33C264.404 319.63 256.739 336.319 259.437 352.745C261.88 367.624 268.611 381.362 277.832 393.149C279.958 395.867 290.066 408.654 287.14 397.041C283.787 383.734 275.023 371.391 265.125 362.174C247.618 345.872 227.523 342.135 204.286 346.174C180.436 350.319 158.487 360.676 147.5 383.426C137.485 404.161 140.529 427.407 145.113 449.088C146.086 453.691 157.196 484.373 150.163 488.229C147.345 489.774 141.542 485.79 139.547 484.723C132.137 480.762 125.105 476.424 117.187 473.462C113.294 472.006 69.1051 460.136 71.8048 470.851" stroke="#2C0065" stroke-linecap="round"/>
<path opacity="0.791667" d="M449.226 122.154C435.382 116.873 418.915 108.156 403.448 109.286C389.735 110.288 389.64 132.814 388.439 141.505C384.327 171.246 384.398 202.025 377.191 231.298C374.912 240.557 371.514 245.527 363.315 249.599C351.79 255.323 335.964 256.889 323.355 255.187C314.677 254.017 309.972 248.843 302.523 245.076C293.609 240.569 290.978 246.089 287.804 253.889C281.209 270.097 274.723 286.422 268.192 302.672C262.213 317.55 256.031 334.843 260.15 350.972C263.881 365.582 271.784 378.681 281.997 389.619C284.352 392.141 295.535 403.999 291.608 392.685C287.109 379.72 277.302 368.189 266.638 359.869C247.778 345.155 227.434 343.184 204.636 349.233C181.238 355.441 160.276 367.671 151.313 391.292C143.144 412.821 148.202 435.713 154.658 456.913C156.029 461.413 169.771 491.01 163.1 495.464C160.428 497.249 154.3 493.786 152.219 492.897C144.492 489.597 137.109 485.888 128.963 483.628C124.958 482.516 79.9025 474.543 83.5258 484.982" stroke="#2C0065" stroke-linecap="round"/>
<path opacity="0.833333" d="M429.434 104.495C415.182 100.44 398.019 93.1918 382.709 95.6656C369.135 97.8589 371.004 120.307 370.565 129.07C369.061 159.056 371.814 189.712 367.186 219.501C365.722 228.923 362.771 234.171 354.958 238.942C343.975 245.649 328.346 248.588 315.637 247.992C306.89 247.582 301.752 242.838 294.003 239.735C284.73 236.022 282.59 241.75 280.108 249.797C274.951 266.518 269.912 283.346 264.822 300.104C260.162 315.446 255.512 333.212 261.021 348.92C266.011 363.15 275.025 375.51 286.153 385.517C288.718 387.824 300.893 398.662 295.994 387.733C290.382 375.21 279.608 364.577 268.259 357.219C248.188 344.204 227.75 344.014 205.566 352.026C182.799 360.25 162.982 374.261 156.112 398.573C149.85 420.732 156.884 443.096 165.163 463.652C166.921 468.017 183.19 496.303 176.933 501.322C174.427 503.333 168.02 500.417 165.87 499.713C157.885 497.098 150.207 494.047 141.895 492.505C137.807 491.747 92.2287 487.731 96.748 497.815" stroke="#2C0065" stroke-linecap="round"/>
<path opacity="0.875" d="M408.492 88.4056C393.941 85.6087 376.211 79.8837 361.175 83.6823C347.844 87.0503 351.662 109.251 351.988 118.018C353.104 148.021 358.518 178.32 356.504 208.4C355.867 217.914 353.384 223.399 346.017 228.833C335.661 236.471 320.347 240.761 307.634 241.275C298.885 241.629 293.353 237.35 285.363 234.935C275.802 232.044 274.169 237.937 272.398 246.17C268.718 263.277 265.164 280.48 261.555 297.617C258.25 313.307 255.165 331.411 262.022 346.579C268.234 360.32 278.291 371.847 290.248 380.846C293.005 382.921 306.078 392.657 300.246 382.196C293.563 370.21 281.904 360.556 269.957 354.215C248.827 343 228.45 344.591 207.05 354.507C185.085 364.683 166.565 380.368 161.84 405.187C157.533 427.807 166.49 449.473 176.529 469.229C178.661 473.424 197.333 500.184 191.538 505.73C189.216 507.951 182.579 505.605 180.376 505.091C172.193 503.182 164.279 500.812 155.864 500.001C151.726 499.601 105.971 499.573 111.352 509.224" stroke="#2C0065" stroke-linecap="round"/>
<path opacity="0.916667" d="M386.541 73.9797C371.802 72.4617 353.64 68.3037 338.993 73.3983C326.006 77.9154 331.745 99.6984 332.833 108.404C336.56 138.195 344.594 167.908 345.209 198.048C345.404 207.582 343.409 213.262 336.543 219.317C326.892 227.829 312.011 233.437 299.391 235.058C290.705 236.173 284.822 232.393 276.652 230.683C266.875 228.637 265.762 234.649 264.715 243.005C262.54 260.367 260.499 277.815 258.397 295.201C256.472 311.12 254.978 329.424 263.13 343.937C270.516 357.083 281.539 367.691 294.236 375.613C297.163 377.439 311.034 385.999 304.312 376.086C296.611 364.729 284.154 356.128 271.7 350.852C249.674 341.521 229.513 344.882 209.058 356.625C188.064 368.677 170.981 385.917 168.437 411.052C166.119 433.962 176.929 454.765 188.652 473.571C191.141 477.564 212.075 502.595 206.785 508.624C204.666 511.04 197.85 509.281 195.61 508.961C187.292 507.772 179.201 506.101 170.747 506.026C166.59 505.989 121.007 509.949 127.209 519.095" stroke="#2C0065" stroke-linecap="round"/>
<path opacity="0.958333" d="M363.73 61.2998C348.914 61.0722 330.46 58.5129 316.312 64.8647C303.769 70.4964 311.384 91.6965 313.227 100.274C319.536 129.627 330.13 158.526 333.369 188.498C334.394 197.979 332.901 203.811 326.589 210.442C317.717 219.762 303.381 226.646 290.95 229.36C282.395 231.228 276.205 227.975 267.917 226.984C257.999 225.798 257.414 231.885 257.099 240.299C256.446 257.786 255.934 275.344 255.355 292.848C254.825 308.874 254.931 327.239 264.317 340.985C272.82 353.438 284.726 363.045 298.065 369.83C301.14 371.395 315.705 378.712 308.145 369.423C299.483 358.78 286.324 351.298 273.457 347.127C250.702 339.751 230.91 344.857 211.556 358.338C191.693 372.174 176.178 390.837 175.834 416.099C175.521 439.124 188.104 458.905 201.421 476.618C204.249 480.378 227.284 503.49 222.54 509.957C220.639 512.548 213.696 511.39 211.436 511.267C203.047 510.808 194.841 509.848 186.413 510.51C182.269 510.836 137.204 518.753 144.179 527.323" stroke="#2C0065" stroke-linecap="round"/>
<path d="M340.215 50.4337C325.436 51.4982 306.829 50.5571 293.289 58.1177C281.284 64.8213 290.717 85.277 293.301 93.661C302.144 122.353 315.216 150.219 321.056 179.794C322.903 189.149 321.924 195.09 316.214 202.245C308.188 212.304 294.507 220.411 282.36 224.198C274 226.804 267.55 224.103 259.207 223.838C249.223 223.521 249.171 229.635 249.591 238.046C250.464 255.522 251.484 273.059 252.433 290.546C253.301 306.557 255.008 324.843 265.557 337.719C275.113 349.384 287.811 357.916 301.69 363.513C304.89 364.804 320.037 370.824 311.696 362.229C302.139 352.382 288.378 346.075 275.197 343.041C251.885 337.677 232.614 344.488 214.509 359.605C195.927 375.119 182.098 395.063 183.957 420.259C185.652 443.223 199.91 461.833 214.721 478.317C217.866 481.817 242.828 502.833 238.665 509.689C236.998 512.436 229.98 511.888 227.718 511.962C219.321 512.235 211.062 511.995 202.724 513.389C198.624 514.074 154.42 525.889 162.116 533.819" stroke="#2C0065" stroke-linecap="round"/>
</svg>
