<svg width="28" height="24" viewBox="0 0 28 24" fill="none" xmlns="http://www.w3.org/2000/svg">
<path d="M27.3893 1.18792C27.2783 0.905604 27.1593 0.833281 26.9737 0.770334C26.5706 0.635224 25.907 0.896304 25.907 0.896304C25.907 0.896304 2.47628 10.5895 1.15747 11.607C0.871972 11.8252 0.78087 11.951 0.739269 12.0904C0.533655 12.7802 1.28185 13.0483 1.28185 13.0483L7.51641 14.7883C7.51641 14.7883 7.74732 14.8107 7.82786 14.7549C9.18325 13.8041 21.4714 5.1838 22.1903 4.88072C22.3037 4.84082 22.3903 4.8766 22.3711 4.95806C22.127 6.00257 11.5861 16.3395 11.5861 16.3395C11.5861 16.3395 11.5461 16.3931 11.5245 16.4578L11.5098 16.4495L11.2197 22.6097C11.2197 22.6097 11.0673 24.5009 12.8445 22.5355C14.1013 21.15 15.3208 19.9821 15.9348 19.4164C18.1135 20.7916 20.4623 22.3141 21.4832 23.1192C21.9955 23.5232 22.4106 23.5744 22.7502 23.5473C23.6812 23.4712 23.8915 22.428 23.8915 22.428C23.8915 22.428 27.4212 4.63184 27.4561 2.26752C27.4611 2.03737 27.4708 1.88874 27.4653 1.72856C27.458 1.50701 27.4273 1.28874 27.3889 1.18456L27.3893 1.18792Z" fill="#1A003D"/>
</svg>
