<svg width="28" height="23" viewBox="0 0 28 23" fill="none" xmlns="http://www.w3.org/2000/svg">
<path d="M1.07898 4.20234C1.07898 2.95398 2.07336 1.94198 3.3 1.94198Lnan nanCnan nan -nan -nan -nan -nanL-nan -nanC-nan -nan nan nan nan nanL3.3 1.94198C4.52663 1.94198 5.52101 2.95398 5.52101 4.20234V21.6476H3.4025C2.11926 21.6476 1.07898 20.5889 1.07898 19.283V4.20234Z" fill="#F2F0ED"/>
<path fill-rule="evenodd" clip-rule="evenodd" d="M0 4.20239C0 2.4833 1.36934 1.08971 3.0585 1.08971C4.74767 1.08971 6.11701 2.4833 6.11701 4.20239V22.5H3.16101C1.41523 22.5 0 21.0597 0 19.283V4.20239ZM3.0585 2.79435C2.2944 2.79435 1.67498 3.42475 1.67498 4.20239V19.283C1.67498 20.1183 2.3403 20.7954 3.16101 20.7954H4.44203V4.20239C4.44203 3.42475 3.82261 2.79435 3.0585 2.79435Z" fill="#1A003D"/>
<path d="M22.6056 4.20234C22.6056 2.95398 23.6 1.94198 24.8266 1.94198Lnan nanCnan nan -nan -nan -nan -nanL-nan -nanC-nan -nan nan nan nan nanL24.8266 1.94198C26.0532 1.94198 27.0476 2.95398 27.0476 4.20234V19.283C27.0476 20.5889 26.0073 21.6476 24.7241 21.6476H22.6056V4.20234Z" fill="#F2F0ED"/>
<path fill-rule="evenodd" clip-rule="evenodd" d="M21.858 4.20236C21.858 2.48328 23.2273 1.08968 24.9165 1.08968C26.6056 1.08968 27.975 2.48328 27.975 4.20236V19.283C27.975 21.0597 26.5597 22.5 24.814 22.5H21.858V4.20236ZM24.9165 2.79432C24.1524 2.79432 23.5329 3.42472 23.5329 4.20236V20.7953H24.814C25.6347 20.7953 26.3 20.1182 26.3 19.283V4.20236C26.3 3.42472 25.6806 2.79432 24.9165 2.79432Z" fill="#1A003D"/>
<path d="M23.4943 1.90996C24.4094 1.09409 25.8003 1.18384 26.6068 2.11082L26.6068 2.11082C27.4245 3.05058 27.3286 4.48949 26.3938 5.30833L21.2673 9.79864L20.4282 4.64351L23.4943 1.90996Z" fill="#F2F0ED"/>
<path fill-rule="evenodd" clip-rule="evenodd" d="M22.9424 1.2689C24.2041 0.144016 26.1217 0.267761 27.2337 1.54582C28.3611 2.84152 28.2289 4.82541 26.94 5.95438L20.6844 11.4337L19.5257 4.31496L22.9424 1.2689ZM25.9797 2.6759C25.4787 2.10002 24.6146 2.04426 24.0461 2.55112L21.3305 4.97216L21.85 8.16371L25.8474 4.66237C26.4282 4.15366 26.4877 3.25974 25.9797 2.6759Z" fill="#1A003D"/>
<path fill-rule="evenodd" clip-rule="evenodd" d="M1.30614 2.82313C0.615226 3.918 0.898111 5.4234 1.93717 6.18121L15.0027 15.7102L21.2883 9.77572L20.4751 4.59241L14.8196 9.85851L4.42626 2.22141C3.39225 1.46161 1.99533 1.73101 1.30614 2.82313Z" fill="#F2F0ED"/>
<path fill-rule="evenodd" clip-rule="evenodd" d="M3.936 2.91245C3.29152 2.43888 2.44037 2.60302 2.01081 3.28373C1.56081 3.99683 1.74855 4.99509 2.425 5.48844L14.9347 14.6121L20.3907 9.46055L19.8932 6.28946L14.882 10.9557L3.936 2.91245ZM0.601456 2.36257C1.55026 0.859033 3.49297 0.484377 4.9165 1.5304L14.7572 8.7614L21.0569 2.8954L22.1858 10.0909L15.0718 16.8079L14.5161 16.4039L1.44933 6.87402C0.0476542 5.85175 -0.330378 3.83921 0.601456 2.36257Z" fill="#1A003D"/>
</svg>
