<svg width="26" height="25" viewBox="0 0 26 25" fill="none" xmlns="http://www.w3.org/2000/svg">
<path d="M0.431818 25V7.54545H5.27273V25H0.431818ZM2.86364 5.29545C2.14394 5.29545 1.52652 5.05682 1.01136 4.57954C0.503788 4.0947 0.25 3.51515 0.25 2.84091C0.25 2.17424 0.503788 1.60227 1.01136 1.125C1.52652 0.640151 2.14394 0.397726 2.86364 0.397726C3.58333 0.397726 4.19697 0.640151 4.70455 1.125C5.2197 1.60227 5.47727 2.17424 5.47727 2.84091C5.47727 3.51515 5.2197 4.0947 4.70455 4.57954C4.19697 5.05682 3.58333 5.29545 2.86364 5.29545ZM13.9915 14.9091V25H9.15057V7.54545H13.7642V10.625H13.9688C14.3551 9.60985 15.0028 8.80682 15.9119 8.21591C16.821 7.61742 17.9233 7.31818 19.2188 7.31818C20.4309 7.31818 21.4877 7.58333 22.3892 8.11364C23.2907 8.64394 23.9915 9.40151 24.4915 10.3864C24.9915 11.3636 25.2415 12.5303 25.2415 13.8864V25H20.4006V14.75C20.4081 13.6818 20.1354 12.8485 19.5824 12.25C19.0294 11.6439 18.268 11.3409 17.2983 11.3409C16.6468 11.3409 16.071 11.4811 15.571 11.7614C15.0786 12.0417 14.6922 12.4508 14.4119 12.9886C14.1392 13.5189 13.9991 14.1591 13.9915 14.9091Z" fill="#1A003D"/>
</svg>
