<svg width="20" height="20" viewBox="0 0 27 27" fill="none" xmlns="http://www.w3.org/2000/svg">
<path d="M2.25 6.75C2.25 4.62868 2.25 3.56802 2.90901 2.90901C3.56802 2.25 4.62868 2.25 6.75 2.25C8.87132 2.25 9.93198 2.25 10.591 2.90901C11.25 3.56802 11.25 4.62868 11.25 6.75V20.25C11.25 22.3713 11.25 23.432 10.591 24.091C9.93198 24.75 8.87132 24.75 6.75 24.75C4.62868 24.75 3.56802 24.75 2.90901 24.091C2.25 23.432 2.25 22.3713 2.25 20.25V6.75Z" fill="currentColor" fill-opacity="0.6"/>
<path d="M15.75 6.75C15.75 4.62868 15.75 3.56802 16.409 2.90901C17.068 2.25 18.1287 2.25 20.25 2.25C22.3713 2.25 23.432 2.25 24.091 2.90901C24.75 3.56802 24.75 4.62868 24.75 6.75V20.25C24.75 22.3713 24.75 23.432 24.091 24.091C23.432 24.75 22.3713 24.75 20.25 24.75C18.1287 24.75 17.068 24.75 16.409 24.091C15.75 23.432 15.75 22.3713 15.75 20.25V6.75Z" fill="currentColor" fill-opacity="0.6"/>
</svg>
