<svg width="23" height="23" viewBox="0 0 23 23" fill="none" xmlns="http://www.w3.org/2000/svg">
<path d="M5.98192 11.1379H17.7548C20.6133 11.1379 22.8683 8.99897 22.8683 5.81893C22.8683 2.63889 20.6133 0.5 17.7548 0.5H5.98192C3.1234 0.5 0.868347 2.63889 0.868347 5.81893C0.868347 8.99897 3.1234 11.1379 5.98192 11.1379ZM5.98192 9.10082C4.25622 9.10082 2.77403 7.76543 2.77403 5.81893C2.77403 3.87243 4.25622 2.53704 5.98192 2.53704H17.7548C19.4805 2.53704 20.9733 3.87243 20.9733 5.81893C20.9733 7.76543 19.4805 9.10082 17.7548 9.10082H5.98192ZM5.98192 8.35391C7.30531 8.36523 8.36402 7.21091 8.36402 5.7963C8.3746 4.393 7.30531 3.27263 5.98192 3.27263C4.65853 3.27263 3.61041 4.40432 3.61041 5.80761C3.61041 7.22222 4.65853 8.34259 5.98192 8.35391ZM5.54785 22.5H18.1888C20.7933 22.5 22.8683 20.5422 22.8683 17.6903C22.8683 14.8385 20.7933 12.8693 18.1888 12.8693H5.54785C2.94342 12.8693 0.868347 14.8385 0.868347 17.6903C0.868347 20.5422 2.94342 22.5 5.54785 22.5ZM18.4641 20.4856C17.0031 20.4743 15.8491 19.2294 15.8491 17.679C15.8491 16.1286 17.0031 14.8837 18.4641 14.8837C19.9145 14.8837 21.1003 16.1286 21.0897 17.6564C21.0791 19.2294 19.904 20.4969 18.4641 20.4856Z" fill="currentColor"/>
</svg>
